<mxfile host="app.diagrams.net" agent="Mozilla/5.0 (X11; Linux x86_64) AppleWebKit/537.36 (KHTML, like Gecko) Chrome/138.0.0.0 Safari/537.36" version="28.0.6">
  <diagram name="Page-1" id="hSS2mn2FpjNsyj_Wme2a">
    <mxGraphModel dx="1360" dy="759" grid="1" gridSize="10" guides="1" tooltips="1" connect="1" arrows="1" fold="1" page="1" pageScale="1" pageWidth="850" pageHeight="1100" math="0" shadow="0">
      <root>
        <mxCell id="0" />
        <mxCell id="1" parent="0" />
        <mxCell id="o55b9gzxD0ZWl2xqu1qY-2" value="" style="rounded=0;whiteSpace=wrap;html=1;" vertex="1" parent="1">
          <mxGeometry x="60" y="300" width="700" height="440" as="geometry" />
        </mxCell>
        <mxCell id="o55b9gzxD0ZWl2xqu1qY-1" value="" style="outlineConnect=0;dashed=0;verticalLabelPosition=bottom;verticalAlign=top;align=center;html=1;shape=mxgraph.aws3.virtual_private_cloud;fillColor=#F58534;gradientColor=none;" vertex="1" parent="1">
          <mxGeometry x="60" y="300" width="50" height="40" as="geometry" />
        </mxCell>
        <mxCell id="o55b9gzxD0ZWl2xqu1qY-5" value="Private subnet" style="points=[[0,0],[0.25,0],[0.5,0],[0.75,0],[1,0],[1,0.25],[1,0.5],[1,0.75],[1,1],[0.75,1],[0.5,1],[0.25,1],[0,1],[0,0.75],[0,0.5],[0,0.25]];outlineConnect=0;gradientColor=none;html=1;whiteSpace=wrap;fontSize=12;fontStyle=0;container=1;pointerEvents=0;collapsible=0;recursiveResize=0;shape=mxgraph.aws4.group;grIcon=mxgraph.aws4.group_security_group;grStroke=0;strokeColor=#00A4A6;fillColor=#E6F6F7;verticalAlign=top;align=left;spacingLeft=30;fontColor=#147EBA;dashed=0;" vertex="1" parent="1">
          <mxGeometry x="590" y="419" width="140" height="320" as="geometry" />
        </mxCell>
        <mxCell id="o55b9gzxD0ZWl2xqu1qY-14" value="POSTGRES_EC2&lt;div&gt;&lt;br&gt;&lt;/div&gt;" style="outlineConnect=0;dashed=0;verticalLabelPosition=bottom;verticalAlign=top;align=center;html=1;shape=mxgraph.aws3.ec2;fillColor=#F58534;gradientColor=none;" vertex="1" parent="o55b9gzxD0ZWl2xqu1qY-5">
          <mxGeometry x="32.5" y="171" width="76.5" height="93" as="geometry" />
        </mxCell>
        <mxCell id="o55b9gzxD0ZWl2xqu1qY-6" value="Public subnet" style="points=[[0,0],[0.25,0],[0.5,0],[0.75,0],[1,0],[1,0.25],[1,0.5],[1,0.75],[1,1],[0.75,1],[0.5,1],[0.25,1],[0,1],[0,0.75],[0,0.5],[0,0.25]];outlineConnect=0;gradientColor=none;html=1;whiteSpace=wrap;fontSize=12;fontStyle=0;container=1;pointerEvents=0;collapsible=0;recursiveResize=0;shape=mxgraph.aws4.group;grIcon=mxgraph.aws4.group_security_group;grStroke=0;strokeColor=#7AA116;fillColor=#F2F6E8;verticalAlign=top;align=left;spacingLeft=30;fontColor=#248814;dashed=0;" vertex="1" parent="1">
          <mxGeometry x="130" y="420" width="130" height="320" as="geometry" />
        </mxCell>
        <mxCell id="o55b9gzxD0ZWl2xqu1qY-13" value="MINIKUBE-EC2" style="outlineConnect=0;dashed=0;verticalLabelPosition=bottom;verticalAlign=top;align=center;html=1;shape=mxgraph.aws3.ec2;fillColor=#F58534;gradientColor=none;" vertex="1" parent="o55b9gzxD0ZWl2xqu1qY-6">
          <mxGeometry x="20" y="180" width="76.5" height="93" as="geometry" />
        </mxCell>
        <mxCell id="o55b9gzxD0ZWl2xqu1qY-29" style="edgeStyle=orthogonalEdgeStyle;rounded=0;orthogonalLoop=1;jettySize=auto;html=1;entryX=0.5;entryY=1;entryDx=0;entryDy=0;" edge="1" parent="1" source="o55b9gzxD0ZWl2xqu1qY-7" target="o55b9gzxD0ZWl2xqu1qY-28">
          <mxGeometry relative="1" as="geometry">
            <Array as="points">
              <mxPoint x="170" y="140" />
              <mxPoint x="605" y="140" />
            </Array>
          </mxGeometry>
        </mxCell>
        <mxCell id="o55b9gzxD0ZWl2xqu1qY-7" value="&lt;b&gt;Internet&lt;br&gt;GW&lt;/b&gt;" style="outlineConnect=0;dashed=0;verticalLabelPosition=bottom;verticalAlign=top;align=center;html=1;shape=mxgraph.aws3.internet_gateway;fillColor=#F58536;gradientColor=none;" vertex="1" parent="1">
          <mxGeometry x="120" y="268" width="69" height="72" as="geometry" />
        </mxCell>
        <mxCell id="o55b9gzxD0ZWl2xqu1qY-35" style="edgeStyle=orthogonalEdgeStyle;rounded=0;orthogonalLoop=1;jettySize=auto;html=1;" edge="1" parent="1" source="o55b9gzxD0ZWl2xqu1qY-9" target="o55b9gzxD0ZWl2xqu1qY-7">
          <mxGeometry relative="1" as="geometry">
            <Array as="points">
              <mxPoint x="110" y="509" />
              <mxPoint x="110" y="405" />
              <mxPoint x="150" y="405" />
            </Array>
          </mxGeometry>
        </mxCell>
        <mxCell id="o55b9gzxD0ZWl2xqu1qY-9" value="&lt;b&gt;NAT&lt;/b&gt;&lt;br&gt;&lt;b&gt;GW&lt;/b&gt;" style="sketch=0;outlineConnect=0;fontColor=#232F3E;gradientColor=none;fillColor=#8C4FFF;strokeColor=none;dashed=0;verticalLabelPosition=bottom;verticalAlign=top;align=center;html=1;fontSize=12;fontStyle=0;aspect=fixed;pointerEvents=1;shape=mxgraph.aws4.nat_gateway;" vertex="1" parent="1">
          <mxGeometry x="170" y="470" width="78" height="78" as="geometry" />
        </mxCell>
        <mxCell id="o55b9gzxD0ZWl2xqu1qY-11" value="Public subnet" style="points=[[0,0],[0.25,0],[0.5,0],[0.75,0],[1,0],[1,0.25],[1,0.5],[1,0.75],[1,1],[0.75,1],[0.5,1],[0.25,1],[0,1],[0,0.75],[0,0.5],[0,0.25]];outlineConnect=0;gradientColor=none;html=1;whiteSpace=wrap;fontSize=12;fontStyle=0;container=1;pointerEvents=0;collapsible=0;recursiveResize=0;shape=mxgraph.aws4.group;grIcon=mxgraph.aws4.group_security_group;grStroke=0;strokeColor=#7AA116;fillColor=#F2F6E8;verticalAlign=top;align=left;spacingLeft=30;fontColor=#248814;dashed=0;" vertex="1" parent="1">
          <mxGeometry x="270" y="420" width="130" height="320" as="geometry" />
        </mxCell>
        <mxCell id="o55b9gzxD0ZWl2xqu1qY-12" value="Private subnet" style="points=[[0,0],[0.25,0],[0.5,0],[0.75,0],[1,0],[1,0.25],[1,0.5],[1,0.75],[1,1],[0.75,1],[0.5,1],[0.25,1],[0,1],[0,0.75],[0,0.5],[0,0.25]];outlineConnect=0;gradientColor=none;html=1;whiteSpace=wrap;fontSize=12;fontStyle=0;container=1;pointerEvents=0;collapsible=0;recursiveResize=0;shape=mxgraph.aws4.group;grIcon=mxgraph.aws4.group_security_group;grStroke=0;strokeColor=#00A4A6;fillColor=#E6F6F7;verticalAlign=top;align=left;spacingLeft=30;fontColor=#147EBA;dashed=0;" vertex="1" parent="1">
          <mxGeometry x="440" y="419" width="140" height="320" as="geometry" />
        </mxCell>
        <mxCell id="o55b9gzxD0ZWl2xqu1qY-19" style="edgeStyle=orthogonalEdgeStyle;rounded=0;orthogonalLoop=1;jettySize=auto;html=1;" edge="1" parent="1" source="o55b9gzxD0ZWl2xqu1qY-15" target="o55b9gzxD0ZWl2xqu1qY-7">
          <mxGeometry relative="1" as="geometry" />
        </mxCell>
        <mxCell id="o55b9gzxD0ZWl2xqu1qY-15" value="&lt;div&gt;&lt;br&gt;&lt;/div&gt;&lt;div&gt;&lt;br&gt;&lt;/div&gt;&lt;div&gt;&lt;br&gt;&lt;/div&gt;&lt;div&gt;&lt;br&gt;&lt;/div&gt;&lt;div&gt;&lt;br&gt;&lt;/div&gt;&lt;div&gt;&lt;br&gt;&lt;/div&gt;&lt;div&gt;Public route table&lt;/div&gt;" style="points=[];aspect=fixed;html=1;align=center;shadow=0;dashed=0;fillColor=#FF6A00;strokeColor=none;shape=mxgraph.alibaba_cloud.route_table;" vertex="1" parent="1">
          <mxGeometry x="290" y="300" width="53.32" height="67.4" as="geometry" />
        </mxCell>
        <mxCell id="o55b9gzxD0ZWl2xqu1qY-21" style="edgeStyle=orthogonalEdgeStyle;rounded=0;orthogonalLoop=1;jettySize=auto;html=1;" edge="1" parent="1" source="o55b9gzxD0ZWl2xqu1qY-20" target="o55b9gzxD0ZWl2xqu1qY-9">
          <mxGeometry relative="1" as="geometry">
            <Array as="points">
              <mxPoint x="597" y="510" />
            </Array>
          </mxGeometry>
        </mxCell>
        <mxCell id="o55b9gzxD0ZWl2xqu1qY-20" value="&lt;div&gt;&lt;br&gt;&lt;/div&gt;&lt;div&gt;&lt;br&gt;&lt;/div&gt;&lt;div&gt;&lt;br&gt;&lt;/div&gt;&lt;div&gt;&lt;br&gt;&lt;/div&gt;&lt;div&gt;&lt;br&gt;&lt;/div&gt;&lt;div&gt;&lt;br&gt;&lt;/div&gt;Private route table" style="points=[];aspect=fixed;html=1;align=center;shadow=0;dashed=0;fillColor=#FF6A00;strokeColor=none;shape=mxgraph.alibaba_cloud.route_table;" vertex="1" parent="1">
          <mxGeometry x="570" y="300" width="53.32" height="67.4" as="geometry" />
        </mxCell>
        <mxCell id="o55b9gzxD0ZWl2xqu1qY-22" style="edgeStyle=orthogonalEdgeStyle;rounded=0;orthogonalLoop=1;jettySize=auto;html=1;entryX=0.533;entryY=0.527;entryDx=0;entryDy=0;entryPerimeter=0;" edge="1" parent="1" source="o55b9gzxD0ZWl2xqu1qY-12" target="o55b9gzxD0ZWl2xqu1qY-20">
          <mxGeometry relative="1" as="geometry" />
        </mxCell>
        <mxCell id="o55b9gzxD0ZWl2xqu1qY-26" style="edgeStyle=orthogonalEdgeStyle;rounded=0;orthogonalLoop=1;jettySize=auto;html=1;" edge="1" parent="1" source="o55b9gzxD0ZWl2xqu1qY-24" target="o55b9gzxD0ZWl2xqu1qY-25">
          <mxGeometry relative="1" as="geometry">
            <Array as="points">
              <mxPoint x="290" y="81" />
              <mxPoint x="290" y="81" />
            </Array>
          </mxGeometry>
        </mxCell>
        <mxCell id="o55b9gzxD0ZWl2xqu1qY-27" value="&lt;div style=&quot;background-color: rgb(31, 31, 31); font-family: &amp;quot;Droid Sans Mono&amp;quot;, &amp;quot;monospace&amp;quot;, monospace; font-size: 14px; line-height: 19px; white-space-collapse: preserve; color: rgb(204, 204, 204);&quot;&gt;&lt;span style=&quot;color: rgb(206, 145, 120);&quot;&gt;OIDC connection + SSM connection&lt;/span&gt;&lt;/div&gt;" style="edgeStyle=orthogonalEdgeStyle;rounded=0;orthogonalLoop=1;jettySize=auto;html=1;" edge="1" parent="1" source="o55b9gzxD0ZWl2xqu1qY-24" target="o55b9gzxD0ZWl2xqu1qY-13">
          <mxGeometry x="-0.1713" relative="1" as="geometry">
            <Array as="points">
              <mxPoint x="731" y="190" />
              <mxPoint x="188" y="190" />
            </Array>
            <mxPoint as="offset" />
          </mxGeometry>
        </mxCell>
        <mxCell id="o55b9gzxD0ZWl2xqu1qY-24" value="GitHub Actions" style="dashed=0;outlineConnect=0;html=1;align=center;labelPosition=center;verticalLabelPosition=bottom;verticalAlign=top;shape=mxgraph.webicons.github;gradientColor=#DFDEDE" vertex="1" parent="1">
          <mxGeometry x="680" y="30" width="102.4" height="102.4" as="geometry" />
        </mxCell>
        <mxCell id="o55b9gzxD0ZWl2xqu1qY-25" value="Docker-Hub&lt;div&gt;&lt;br&gt;&lt;/div&gt;" style="image;sketch=0;aspect=fixed;html=1;points=[];align=center;fontSize=12;image=img/lib/mscae/Docker.svg;" vertex="1" parent="1">
          <mxGeometry x="80" y="40" width="85.37" height="70" as="geometry" />
        </mxCell>
        <mxCell id="o55b9gzxD0ZWl2xqu1qY-28" value="" style="image;aspect=fixed;perimeter=ellipsePerimeter;html=1;align=center;shadow=0;dashed=0;spacingTop=3;image=img/lib/active_directory/internet_globe.svg;" vertex="1" parent="1">
          <mxGeometry x="580" y="10" width="50" height="50" as="geometry" />
        </mxCell>
        <mxCell id="o55b9gzxD0ZWl2xqu1qY-32" style="edgeStyle=orthogonalEdgeStyle;rounded=0;orthogonalLoop=1;jettySize=auto;html=1;entryX=0.525;entryY=0.579;entryDx=0;entryDy=0;entryPerimeter=0;" edge="1" parent="1" source="o55b9gzxD0ZWl2xqu1qY-5" target="o55b9gzxD0ZWl2xqu1qY-20">
          <mxGeometry relative="1" as="geometry" />
        </mxCell>
        <mxCell id="o55b9gzxD0ZWl2xqu1qY-33" style="edgeStyle=orthogonalEdgeStyle;rounded=0;orthogonalLoop=1;jettySize=auto;html=1;entryX=0.713;entryY=1.068;entryDx=0;entryDy=0;entryPerimeter=0;" edge="1" parent="1" source="o55b9gzxD0ZWl2xqu1qY-11" target="o55b9gzxD0ZWl2xqu1qY-15">
          <mxGeometry relative="1" as="geometry" />
        </mxCell>
        <mxCell id="o55b9gzxD0ZWl2xqu1qY-34" style="edgeStyle=orthogonalEdgeStyle;rounded=0;orthogonalLoop=1;jettySize=auto;html=1;entryX=0.713;entryY=1.053;entryDx=0;entryDy=0;entryPerimeter=0;" edge="1" parent="1" source="o55b9gzxD0ZWl2xqu1qY-6" target="o55b9gzxD0ZWl2xqu1qY-15">
          <mxGeometry relative="1" as="geometry">
            <Array as="points">
              <mxPoint x="195" y="390" />
              <mxPoint x="328" y="390" />
            </Array>
          </mxGeometry>
        </mxCell>
      </root>
    </mxGraphModel>
  </diagram>
</mxfile>
